HIERARCHY
ROOT root     
{
	OFFSET 0.0000 0.0000 0.0000
	CHANNELS 6 Xposition Yposition Zposition Zrotation Yrotation Xrotation
	JOINT pelvis   
	{
		OFFSET 0.0000 0.0000 0.0000
		CHANNELS 3 Zrotation Yrotation Xrotation
		JOINT thorax   
		{
			OFFSET 0.0000 23.0750 -5.0000
			CHANNELS 3 Zrotation Yrotation Xrotation
			JOINT rclavicle
			{
				OFFSET 0.0000 28.0009 0.0000
				CHANNELS 3 Zrotation Yrotation Xrotation
				JOINT rhumerus 
				{
					OFFSET -18.5725 5.5939 0.0000
					CHANNELS 3 Zrotation Yrotation Xrotation
					JOINT rradius  
					{
						OFFSET -24.8459 0.0000 0.0000
						CHANNELS 3 Zrotation Yrotation Xrotation
						JOINT rhand    
						{
							OFFSET -24.5477 0.0000 0.0000
							CHANNELS 3 Zrotation Yrotation Xrotation
							End Site
							{
								OFFSET -8.1826 0.0000 0.0000
							}
						}
					}
				}
			}
			JOINT lclavicle
			{
				OFFSET 0.0000 28.0009 0.0000
				CHANNELS 3 Zrotation Yrotation Xrotation
				JOINT lhumerus 
				{
					OFFSET 18.5725 5.5939 0.0000
					CHANNELS 3 Zrotation Yrotation Xrotation
					JOINT lradius  
					{
						OFFSET 24.8459 0.0000 0.0000
						CHANNELS 3 Zrotation Yrotation Xrotation
						JOINT lhand    
						{
							OFFSET 24.5477 0.0000 0.0000
							CHANNELS 3 Zrotation Yrotation Xrotation
							End Site
							{
								OFFSET 8.1826 0.0000 0.0000
							}
						}
					}
				}
			}
			JOINT head     
			{
				OFFSET 0.0000 35.2030 0.0000
				CHANNELS 3 Zrotation Yrotation Xrotation
				End Site
				{
					OFFSET 0.0000 11.7343 0.0000
				}
			}
		}
		JOINT rfemur   
		{
			OFFSET -8.2817 0.0000 0.0000
			CHANNELS 3 Zrotation Yrotation Xrotation
			JOINT rtibia   
			{
				OFFSET 0.0000 -43.3627 0.0000
				CHANNELS 3 Zrotation Yrotation Xrotation
				JOINT rfoot    
				{
					OFFSET 0.0000 -38.2947 0.0000
					CHANNELS 3 Zrotation Yrotation Xrotation
					JOINT rtoes    
					{
						OFFSET 0.0000 0.0000 16.6054
						CHANNELS 3 Zrotation Yrotation Xrotation
						End Site
						{
							OFFSET 0.0000 0.0000 5.5351
						}
					}
				}
			}
		}
		JOINT lfemur   
		{
			OFFSET 8.2817 0.0000 0.0000
			CHANNELS 3 Zrotation Yrotation Xrotation
			JOINT ltibia   
			{
				OFFSET 0.0000 -43.3627 0.0000
				CHANNELS 3 Zrotation Yrotation Xrotation
				JOINT lfoot    
				{
					OFFSET 0.0000 -38.2947 0.0000
					CHANNELS 3 Zrotation Yrotation Xrotation
					JOINT ltoes    
					{
						OFFSET 0.0000 0.0000 16.6054
						CHANNELS 3 Zrotation Yrotation Xrotation
						End Site
						{
							OFFSET 0.0000 0.0000 5.5351
						}
					}
				}
			}
		}
	}
}
MOTION
Frames: 11
Frame Time: .0333333
30.23 78.992 12.642 -2.57078 -78.049 28.7764 0 -0 0 14.1523 -14.2976 -13.4473 19.0295 -6.07413 -1.12145e-05 29.9489 22.9506 -64.1222 -6.57052e-07 68.5385 -9.64288e-07 -48.4006 -11.7277 5.2855 -10.4156 9.86459 -1.06106e-05 8.03355 -34.2616 -17.2089 -180 -66.3023 180 19.8141 -19.1014 -3.36644 -16.8841 3.49442 -19.9461 11.4896 -4.17376 -38.9646 -0 -0 48.2827 5.73727e-05 -10.1971 -21.5134 3.774 -7.51411e-06 -14.0953 10.4598 -2.1572 -9.25612 -0 -0 52.1965 -0.000107783 14.0461 22.3497 5.43456 -3.93737e-06 -34.2201 
28.614 79.382 12.43 -0.83382 -77.7798 27.0501 0 -0 0 13.3097 -14.3632 -13.5277 19.2377 -5.93726 6.56965e-06 30.8599 22.7401 -62.8831 0 69.1472 0 -48.0589 -12.454 5.57013 -10.2199 9.81934 1.11613e-05 8.28083 -34.0607 -16.9581 -180 -65.0157 180 19.8591 -19.6105 -3.46584 -17.1487 3.23664 -19.2849 11.4509 -4.1951 -36.9937 -0 -0 46.3743 -6.58454e-05 -10.7077 -21.1721 3.90688 1.96048e-05 -13.0186 10.1301 -2.73109 -11.548 -0 -0 54.4441 3.43661e-06 15.2093 20.3755 5.40713 4.64394e-05 -32.217 
27.018 79.81 12.23 1.00737 -77.5831 25.265 0 -0 0 12.3762 -14.3807 -13.5951 19.4308 -5.76515 -1.07914e-05 31.6855 22.5824 -61.5867 1.00679e-06 69.6269 7.00098e-07 -47.6827 -13.1009 5.8098 -10.0109 9.81727 -8.01383e-06 8.49712 -33.8049 -16.7272 180 -63.9641 -180 19.9191 -20.1847 -3.58038 -17.3322 2.9555 -18.7011 11.3437 -4.19455 -35.042 -0 -0 44.3858 -3.33612e-05 -11.1404 -20.5438 3.95334 -6.34127e-06 -12.1734 9.69027 -3.28412 -13.8783 -0 -0 56.4399 -6.23499e-06 16.1648 18.3373 5.21046 4.26051e-05 -30.1719 
25.441 80.272 12.05 3.0304 -77.4807 23.3373 0 -0 0 11.3353 -14.3389 -13.6379 19.5927 -5.54141 1.42785e-05 32.4307 22.4267 -60.2269 0 69.9926 0 -47.2665 -13.6459 5.99409 -9.79924 9.86902 -2.74781e-06 8.69064 -33.5186 -16.5458 180 -63.1429 -180 19.9606 -20.7831 -3.69661 -17.4271 2.65046 -18.2102 11.143 -4.18874 -33.1233 -0 -0 42.3558 -6.27574e-05 -11.4536 -19.6349 3.89491 -1.32422e-05 -11.765 9.11999 -3.81899 -16.2204 -0 -0 58.1509 5.20105e-05 16.9404 16.2812 4.88075 3.42663e-05 -28.145 
23.876 80.765 11.887 5.12403 -77.4761 21.3592 0 -0 0 10.2285 -14.2077 -13.6268 19.7105 -5.28436 -2.66568e-05 33.0738 22.2892 -58.8024 0 70.2171 0 -46.883 -13.9569 6.07617 -9.60395 9.9792 -1.56243e-05 8.846 -33.2172 -16.4384 -180 -62.5493 180 19.9543 -21.3479 -3.79806 -17.4463 2.31843 -17.8305 10.8747 -4.18577 -31.2254 -0 -0 40.2942 -4.17526e-06 -11.6111 -18.4362 3.71799 1.51307e-05 -11.994 8.45498 -4.30773 -18.5316 -0 -0 59.5438 3.72817e-05 17.56 14.2664 4.45897 -2.01427e-05 -26.2849 
22.317 81.285 11.741 7.24963 -77.5778 19.3518 0 -0 0 9.0785 -13.9693 -13.545 19.768 -4.99662 -1.88862e-05 33.6135 22.1522 -57.3041 0 70.2963 0 -46.526 -13.9755 6.03253 -9.44363 10.1466 4.77643e-06 8.96374 -32.9081 -16.4298 -180 -62.1682 180 19.8809 -21.8256 -3.87048 -17.3942 1.96292 -17.5678 10.5467 -4.18727 -29.34 -0 -0 38.2073 -1.75646e-05 -11.5927 -16.9486 3.42221 2.21047e-06 -12.9833 7.71509 -4.73341 -20.7748 -0 -0 60.5922 0.000142815 18.0467 12.3309 3.9802 2.41697e-06 -24.6494 
20.756 81.829 11.611 9.41399 -77.7908 17.2986 0 -0 0 7.89949 -13.6071 -13.3849 19.7612 -4.68875 1.31318e-05 34.0412 22.0129 -55.7208 -1.02616e-06 70.2215 -1.4595e-06 -46.1849 -13.6414 5.83898 -9.33168 10.3619 -1.89628e-06 9.04153 -32.5898 -16.5369 -180 -61.9786 180 19.7315 -22.1633 -3.90181 -17.2742 1.5891 -17.4234 10.1625 -4.19606 -27.4621 -0 -0 36.1027 5.84531e-05 -11.3846 -15.175 3.01705 -1.36708e-07 -14.816 6.9142 -5.08462 -22.9204 -0 -0 61.2727 -8.27098e-05 18.4233 10.5091 3.47693 7.71316e-06 -23.2883 
19.189 82.39 11.496 11.6153 -78.1191 15.1936 0 -0 0 6.7069 -13.114 -13.1484 19.6899 -4.37529 9.20131e-06 34.3496 21.875 -54.042 0 69.9866 0 -45.8369 -12.9197 5.48151 -9.27619 10.6115 -7.83609e-06 9.07564 -32.2506 -16.7675 -180 -61.9644 180 19.5078 -22.3204 -3.88476 -17.088 1.2063 -17.3908 9.72713 -4.20665 -25.5899 -0 -0 33.9819 -4.58057e-06 -10.9879 -13.1179 2.52321 4.25433e-06 -17.5107 6.06921 -5.35363 -24.9452 -0 -0 61.5664 6.16885e-05 18.7067 8.82894 2.97494 -4.42243e-06 -22.2201 
17.612 82.965 11.393 13.9 -78.5606 12.9891 0 -0 0 5.50941 -12.4881 -12.8448 19.5605 -4.07313 2.14465e-06 34.5299 21.7551 -52.2533 1.00481e-06 69.5802 6.98101e-07 -45.4501 -11.8021 4.95747 -9.27924 10.8778 -3.90537e-06 9.06677 -31.8757 -17.1267 180 -62.0991 -180 19.2293 -22.2719 -3.81965 -16.8347 0.825893 -17.4616 9.24231 -4.20913 -23.7271 -0 -0 31.854 4.5179e-06 -10.4165 -10.7827 1.96963 -8.21152e-06 -21.0652 5.19506 -5.54103 -26.8381 -0 -0 61.4653 1.37415e-05 18.8996 7.30911 2.49404 5.69612e-06 -21.4115 
16.023 83.545 11.299 16.2977 -79.1161 10.6571 0 -0 0 4.32225 -11.7371 -12.4983 19.3769 -3.79626 8.08027e-06 34.5734 21.6655 -50.3393 0 68.9982 0 -44.9929 -10.3251 4.2857 -9.33881 11.1421 -1.04417e-05 9.01862 -31.4421 -17.6178 180 -62.3626 -180 18.9218 -22.0106 -3.71235 -16.5166 0.460393 -17.6226 8.71696 -4.179 -21.8875 -0 -0 29.7235 -4.96407e-06 -9.70076 -8.19561 1.39599 -1.0492e-06 -25.2285 4.31597 -5.6514 -28.6005 -0 -0 60.9706 1.83445e-05 18.9996 5.96727 2.05 7.85846e-06 -20.8584 
14.424 84.125 11.211 18.9142 -79.7683 8.10342 0 -0 0 3.14102 -10.879 -12.129 19.1535 -3.56304 5.58537e-06 34.4723 21.6342 -48.2847 -9.1341e-07 68.2389 -1.34812e-06 -44.4261 -8.54542 3.49501 -9.44301 11.3907 6.07712e-06 8.9353 -30.935 -18.2381 180 -62.742 -180 18.6174 -21.5505 -3.5735 -16.1253 0.122717 -17.8642 8.14862 -4.10171 -20.0871 -0 -0 27.6105 -9.04642e-08 -8.86937 -5.36709 0.836195 5.22079e-07 -29.9521 3.44236 -5.7009 -30.2412 -0 -0 60.0971 -1.7791e-05 18.9985 4.80611 1.65243 1.54763e-05 -20.4342 
